# xmcd CD database file
#
# Track frame offsets:
#	150
#	20999
#	42366
#	69754
#	89038
#	118835
#	140127
#	162684
#	179089
#
# Disc length: 2654 seconds
#
# Revision: 0
# Processed by: cddbd v1.5.2PL0 Copyright (c) Steve Scherf et al.
# Submitted via: CDex 1.70beta2
#
DISCID=8f0a5c09
DTITLE=Paul Millns Band [CD1] - Live in Geneva
DYEAR=2012
DGENRE=Blues
TTITLE0=Dust off that pianoforte
TTITLE1=Lovely Day
TTITLE2=Undecover Man
TTITLE3=The moon might know
TTITLE4=Nobody home
TTITLE5=Slippery Sam
TTITLE6=History of a kiss
TTITLE7=Happy go lucky Joe
TTITLE8=The way of the world
EXTD=YEAR: 2012
EXTT0=
EXTT1=
EXTT2=
EXTT3=
EXTT4=
EXTT5=
EXTT6=
EXTT7=
EXTT8=
PLAYORDER=
